<?xml version="1.0" encoding="UTF-8"?><svg xmlns="http://www.w3.org/2000/svg" xmlns:xlink="http://www.w3.org/1999/xlink" viewBox="0 0 250 140.12"><defs>
  <radialGradient id="radial-gradient"><stop/><stop offset="1" stop-color="#011825"/>
</radialGradient></defs><g style="isolation:isolate;"><g id="Layer_2"><g id="Layer_1-2"><g id="Stars"><rect width="250" height="140.12" style="fill:url(#radial-gradient); stroke-width:0px;"/><g style="mix-blend-mode:screen;"><path d="M60.2,23.91c-.22.04-.24.25-.24.25,0,0-.02-.21-.24-.25.22-.04.24-.25.24-.25,0,0,.02.21.24.25Z" style="fill:#808285; stroke-width:0px;"/><path d="M59.09,28c-.22.04-.24.25-.24.25,0,0-.02-.21-.24-.25.22-.04.24-.25.24-.25,0,0,.02.21.24.25Z" style="fill:#808285; stroke-width:0px;"/><path d="M61.65,48.62c-.22.04-.24.25-.24.25,0,0-.02-.21-.24-.25.22-.04.24-.25.24-.25,0,0,.02.21.24.25Z" style="fill:#808285; stroke-width:0px;"/><path d="M69.46,60.54c-.22.04-.24.25-.24.25,0,0-.02-.21-.24-.25.22-.04.24-.25.24-.25,0,0,.02.21.24.25Z" style="fill:#808285; stroke-width:0px;"/><path d="M69.22,75.1c-.22.04-.24.25-.24.25,0,0-.02-.21-.24-.25.22-.04.24-.25.24-.25,0,0,.02.21.24.25Z" style="fill:#808285; stroke-width:0px;"/><path d="M75.46,85.01c-.22.04-.24.25-.24.25,0,0-.02-.21-.24-.25.22-.04.24-.25.24-.25,0,0,.02.21.24.25Z" style="fill:#808285; stroke-width:0px;"/><path d="M73.46,100.87c-.22.04-.24.25-.24.25,0,0-.02-.21-.24-.25.22-.04.24-.25.24-.25,0,0,.02.21.24.25Z" style="fill:#808285; stroke-width:0px;"/><path d="M74.59,120.04c-.22.04-.24.25-.24.25,0,0-.02-.21-.24-.25.22-.04.24-.25.24-.25,0,0,.02.21.24.25Z" style="fill:#808285; stroke-width:0px;"/><path d="M60.73,111.83c-.22.04-.24.25-.24.25,0,0-.02-.21-.24-.25.22-.04.24-.25.24-.25,0,0,.02.21.24.25Z" style="fill:#808285; stroke-width:0px;"/><path d="M50.04,104.4c-.22.04-.24.25-.24.25,0,0-.02-.21-.24-.25.22-.04.24-.25.24-.25,0,0,.02.21.24.25Z" style="fill:#808285; stroke-width:0px;"/><path d="M41.2,98.95c-.22.04-.24.25-.24.25,0,0-.02-.21-.24-.25.22-.04.24-.25.24-.25,0,0,.02.21.24.25Z" style="fill:#808285; stroke-width:0px;"/><path d="M31.49,101.87c-.22.04-.24.25-.24.25,0,0-.02-.21-.24-.25.22-.04.24-.25.24-.25,0,0,.02.21.24.25Z" style="fill:#808285; stroke-width:0px;"/><path d="M22.74,100.62c-.22.04-.24.25-.24.25,0,0-.02-.21-.24-.25.22-.04.24-.25.24-.25,0,0,.02.21.24.25Z" style="fill:#808285; stroke-width:0px;"/><path d="M17.7,76.78c-.22.04-.24.25-.24.25,0,0-.02-.21-.24-.25.22-.04.24-.25.24-.25,0,0,.02.21.24.25Z" style="fill:#808285; stroke-width:0px;"/><path d="M36.29,83.84c-.22.04-.24.25-.24.25,0,0-.02-.21-.24-.25.22-.04.24-.25.24-.25,0,0,.02.21.24.25Z" style="fill:#808285; stroke-width:0px;"/><path d="M33.54,82.13c-.22.04-.24.25-.24.25,0,0-.02-.21-.24-.25.22-.04.24-.25.24-.25,0,0,.02.21.24.25Z" style="fill:#808285; stroke-width:0px;"/><path d="M33.78,63.28c-.22.04-.24.25-.24.25,0,0-.02-.21-.24-.25.22-.04.24-.25.24-.25,0,0,.02.21.24.25Z" style="fill:#808285; stroke-width:0px;"/><path d="M46.22,53.28c-.22.04-.24.25-.24.25,0,0-.02-.21-.24-.25.22-.04.24-.25.24-.25,0,0,.02.21.24.25Z" style="fill:#808285; stroke-width:0px;"/><path d="M50.96,77.02c-.22.04-.24.25-.24.25,0,0-.02-.21-.24-.25.22-.04.24-.25.24-.25,0,0,.02.21.24.25Z" style="fill:#808285; stroke-width:0px;"/><path d="M28.98,79.09c-.22.04-.24.25-.24.25,0,0-.02-.21-.24-.25.22-.04.24-.25.24-.25,0,0,.02.21.24.25Z" style="fill:#808285; stroke-width:0px;"/><path d="M20.86,87.37c-.22.04-.24.25-.24.25,0,0-.02-.21-.24-.25.22-.04.24-.25.24-.25,0,0,.02.21.24.25Z" style="fill:#808285; stroke-width:0px;"/><path d="M18.47,60.07c-.22.04-.24.25-.24.25,0,0-.02-.21-.24-.25.22-.04.24-.25.24-.25,0,0,.02.21.24.25Z" style="fill:#808285; stroke-width:0px;"/><path d="M16.27,45.25c-.22.04-.24.25-.24.25,0,0-.02-.21-.24-.25.22-.04.24-.25.24-.25,0,0,.02.21.24.25Z" style="fill:#808285; stroke-width:0px;"/><path d="M7.48,56.79c-.22.04-.24.25-.24.25,0,0-.02-.21-.24-.25.22-.04.24-.25.24-.25,0,0,.02.21.24.25Z" style="fill:#808285; stroke-width:0px;"/><path d="M22.5,51.88c-.22.04-.24.25-.24.25,0,0-.02-.21-.24-.25.22-.04.24-.25.24-.25,0,0,.02.21.24.25Z" style="fill:#808285; stroke-width:0px;"/><path d="M22.74,41.78c-.22.04-.24.25-.24.25,0,0-.02-.21-.24-.25.22-.04.24-.25.24-.25,0,0,.02.21.24.25Z" style="fill:#808285; stroke-width:0px;"/><path d="M19.12,35.48c-.22.04-.24.25-.24.25,0,0-.02-.21-.24-.25.22-.04.24-.25.24-.25,0,0,.02.21.24.25Z" style="fill:#808285; stroke-width:0px;"/><path d="M16.12,26.74c-.22.04-.24.25-.24.25,0,0-.02-.21-.24-.25.22-.04.24-.25.24-.25,0,0,.02.21.24.25Z" style="fill:#808285; stroke-width:0px;"/><path d="M22.98,11.06c-.22.04-.24.25-.24.25,0,0-.02-.21-.24-.25.22-.04.24-.25.24-.25,0,0,.02.21.24.25Z" style="fill:#808285; stroke-width:0px;"/><path d="M25.7,17.89c-.22.04-.24.25-.24.25,0,0-.02-.21-.24-.25.22-.04.24-.25.24-.25,0,0,.02.21.24.25Z" style="fill:#808285; stroke-width:0px;"/><path d="M30.69,24.16c-.22.04-.24.25-.24.25,0,0-.02-.21-.24-.25.22-.04.24-.25.24-.25,0,0,.02.21.24.25Z" style="fill:#808285; stroke-width:0px;"/><path d="M33.54,18.96c-.22.04-.24.25-.24.25,0,0-.02-.21-.24-.25.22-.04.24-.25.24-.25,0,0,.02.21.24.25Z" style="fill:#808285; stroke-width:0px;"/><path d="M14.17,16c-.22.04-.24.25-.24.25,0,0-.02-.21-.24-.25.22-.04.24-.25.24-.25,0,0,.02.21.24.25Z" style="fill:#808285; stroke-width:0px;"/><path d="M6.01,10.81c-.22.04-.24.25-.24.25,0,0-.02-.21-.24-.25.22-.04.24-.25.24-.25,0,0,.02.21.24.25Z" style="fill:#808285; stroke-width:0px;"/><path d="M46.46,65.69c-.22.04-.24.25-.24.25,0,0-.02-.21-.24-.25.22-.04.24-.25.24-.25,0,0,.02.21.24.25Z" style="fill:#808285; stroke-width:0px;"/><path d="M62.98,102.27c-.22.04-.24.25-.24.25,0,0-.02-.21-.24-.25.22-.04.24-.25.24-.25,0,0,.02.21.24.25Z" style="fill:#808285; stroke-width:0px;"/><path d="M45.98,127.74c-.22.04-.24.25-.24.25,0,0-.02-.21-.24-.25.22-.04.24-.25.24-.25,0,0,.02.21.24.25Z" style="fill:#808285; stroke-width:0px;"/><path d="M78.67,94.97c-.22.04-.24.25-.24.25,0,0-.02-.21-.24-.25.22-.04.24-.25.24-.25,0,0,.02.21.24.25Z" style="fill:#808285; stroke-width:0px;"/><path d="M52.55,87.12c-.22.04-.24.25-.24.25,0,0-.02-.21-.24-.25.22-.04.24-.25.24-.25,0,0,.02.21.24.25Z" style="fill:#808285; stroke-width:0px;"/><path d="M78.43,35.73c-.22.04-.24.25-.24.25,0,0-.02-.21-.24-.25.22-.04.24-.25.24-.25,0,0,.02.21.24.25Z" style="fill:#808285; stroke-width:0px;"/><path d="M54.3,118.36c-.22.04-.24.25-.24.25,0,0-.02-.21-.24-.25.22-.04.24-.25.24-.25,0,0,.02.21.24.25Z" style="fill:#808285; stroke-width:0px;"/><path d="M58.85,127.24c-.22.04-.24.25-.24.25,0,0-.02-.21-.24-.25.22-.04.24-.25.24-.25,0,0,.02.21.24.25Z" style="fill:#808285; stroke-width:0px;"/><path d="M63.88,134.21c-.22.04-.24.25-.24.25,0,0-.02-.21-.24-.25.22-.04.24-.25.24-.25,0,0,.02.21.24.25Z" style="fill:#808285; stroke-width:0px;"/><path d="M54.55,129.59c-.37.06-.4.41-.4.41,0,0-.03-.35-.4-.41.37-.06.4-.41.4-.41,0,0,.03.35.4.41Z" style="fill:#808285; stroke-width:0px;"/><path d="M39.26,118.36c-.37.06-.4.41-.4.41,0,0-.03-.35-.4-.41.37-.06.4-.41.4-.41,0,0,.03.35.4.41Z" style="fill:#808285; stroke-width:0px;"/><path d="M55.09,100.37c-.37.06-.4.41-.4.41,0,0-.03-.35-.4-.41.37-.06.4-.41.4-.41,0,0,.03.35.4.41Z" style="fill:#808285; stroke-width:0px;"/><path d="M89.49,25.12c-.74.12-.8.82-.8.82,0,0-.06-.7-.8-.82.74-.12.8-.82.8-.82,0,0,.06.7.8.82Z" style="fill:#808285; stroke-width:0px;"/><path d="M98.14,4.65c-.74.12-.8.82-.8.82,0,0-.06-.7-.8-.82.74-.12.8-.82.8-.82,0,0,.06.7.8.82Z" style="fill:#808285; stroke-width:0px;"/><path d="M132.99,16.82c-.74.12-.8.82-.8.82,0,0-.06-.7-.8-.82.74-.12.8-.82.8-.82,0,0,.06.7.8.82Z" style="fill:#808285; stroke-width:0px;"/><path d="M133.78,39.63c-.74.12-.8.83-.8.83,0,0-.06-.7-.8-.83.74-.12.8-.82.8-.82,0,0,.06.7.8.82Z" style="fill:#808285; stroke-width:0px;"/><path d="M147.73,5.03c-.34.06-.37.38-.37.38,0,0-.03-.33-.37-.38.34-.06.37-.38.37-.38,0,0,.03.33.37.38Z" style="fill:#808285; stroke-width:0px;"/><path d="M135.9,28.43c-.34.06-.37.38-.37.38,0,0-.03-.33-.37-.38.34-.06.37-.38.37-.38,0,0,.03.33.37.38Z" style="fill:#808285; stroke-width:0px;"/><path d="M110.34,40.45c-.34.06-.37.38-.37.38,0,0-.03-.33-.37-.38.34-.06.37-.38.37-.38,0,0,.03.33.37.38Z" style="fill:#808285; stroke-width:0px;"/><path d="M122.8,28.72c-.34.06-.37.38-.37.38,0,0-.03-.33-.37-.38.34-.06.37-.38.37-.38,0,0,.03.33.37.38Z" style="fill:#808285; stroke-width:0px;"/><path d="M133.36,3.82c-.34.06-.37.38-.37.38,0,0-.03-.33-.37-.38.34-.06.37-.38.37-.38,0,0,.03.33.37.38Z" style="fill:#808285; stroke-width:0px;"/><path d="M117.41,6.24c-.34.06-.37.38-.37.38,0,0-.03-.33-.37-.38.34-.06.37-.38.37-.38,0,0,.03.33.37.38Z" style="fill:#808285; stroke-width:0px;"/><path d="M161.78,5.42c-.34.06-.37.38-.37.38,0,0-.03-.33-.37-.38.34-.06.37-.38.37-.38,0,0,.03.33.37.38Z" style="fill:#808285; stroke-width:0px;"/><path d="M91.91,70.09c-.34.06-.37.38-.37.38,0,0-.03-.33-.37-.38.34-.06.37-.38.37-.38,0,0,.03.33.37.38Z" style="fill:#808285; stroke-width:0px;"/><path d="M162.58,112.57c-.34.06-.37.38-.37.38,0,0-.03-.33-.37-.38.34-.06.37-.38.37-.38,0,0,.03.33.37.38Z" style="fill:#808285; stroke-width:0px;"/><path d="M89.88,92.97c-.37.06-.4.41-.4.41,0,0-.03-.35-.4-.41.37-.06.4-.41.4-.41,0,0,.03.35.4.41Z" style="fill:#808285; stroke-width:0px;"/><path d="M140.48,10.81c-.37.06-.4.41-.4.41,0,0-.03-.35-.4-.41.37-.06.4-.41.4-.41,0,0,.03.35.4.41Z" style="fill:#808285; stroke-width:0px;"/><path d="M157.33,46.65c-.37.06-.4.41-.4.41,0,0-.03-.35-.4-.41.37-.06.4-.41.4-.41,0,0,.03.35.4.41Z" style="fill:#808285; stroke-width:0px;"/><path d="M113.36,50.61c-.37.06-.4.41-.4.41,0,0-.03-.35-.4-.41.37-.06.4-.41.4-.41,0,0,.03.35.4.41Z" style="fill:#808285; stroke-width:0px;"/><path d="M106.74,47.86c-.37.06-.4.41-.4.41,0,0-.03-.35-.4-.41.37-.06.4-.41.4-.41,0,0,.03.35.4.41Z" style="fill:#808285; stroke-width:0px;"/><path d="M223.14,23.91c-.22.04-.24.25-.24.25,0,0-.02-.21-.24-.25.22-.04.24-.25.24-.25,0,0,.02.21.24.25Z" style="fill:#808285; stroke-width:0px;"/><path d="M222.03,28c-.22.04-.24.25-.24.25,0,0-.02-.21-.24-.25.22-.04.24-.25.24-.25,0,0,.02.21.24.25Z" style="fill:#808285; stroke-width:0px;"/><path d="M224.59,48.62c-.22.04-.24.25-.24.25,0,0-.02-.21-.24-.25.22-.04.24-.25.24-.25,0,0,.02.21.24.25Z" style="fill:#808285; stroke-width:0px;"/><path d="M232.4,60.54c-.22.04-.24.25-.24.25,0,0-.02-.21-.24-.25.22-.04.24-.25.24-.25,0,0,.02.21.24.25Z" style="fill:#808285; stroke-width:0px;"/><path d="M232.16,75.1c-.22.04-.24.25-.24.25,0,0-.02-.21-.24-.25.22-.04.24-.25.24-.25,0,0,.02.21.24.25Z" style="fill:#808285; stroke-width:0px;"/><path d="M238.4,85.01c-.22.04-.24.25-.24.25,0,0-.02-.21-.24-.25.22-.04.24-.25.24-.25,0,0,.02.21.24.25Z" style="fill:#808285; stroke-width:0px;"/><path d="M236.4,100.87c-.22.04-.24.25-.24.25,0,0-.02-.21-.24-.25.22-.04.24-.25.24-.25,0,0,.02.21.24.25Z" style="fill:#808285; stroke-width:0px;"/><path d="M237.53,120.04c-.22.04-.24.25-.24.25,0,0-.02-.21-.24-.25.22-.04.24-.25.24-.25,0,0,.02.21.24.25Z" style="fill:#808285; stroke-width:0px;"/><path d="M223.67,111.83c-.22.04-.24.25-.24.25,0,0-.02-.21-.24-.25.22-.04.24-.25.24-.25,0,0,.02.21.24.25Z" style="fill:#808285; stroke-width:0px;"/><path d="M212.98,104.4c-.22.04-.24.25-.24.25,0,0-.02-.21-.24-.25.22-.04.24-.25.24-.25,0,0,.02.21.24.25Z" style="fill:#808285; stroke-width:0px;"/><path d="M204.14,98.95c-.22.04-.24.25-.24.25,0,0-.02-.21-.24-.25.22-.04.24-.25.24-.25,0,0,.02.21.24.25Z" style="fill:#808285; stroke-width:0px;"/><path d="M194.43,101.87c-.22.04-.24.25-.24.25,0,0-.02-.21-.24-.25.22-.04.24-.25.24-.25,0,0,.02.21.24.25Z" style="fill:#808285; stroke-width:0px;"/><path d="M185.68,100.62c-.22.04-.24.25-.24.25,0,0-.02-.21-.24-.25.22-.04.24-.25.24-.25,0,0,.02.21.24.25Z" style="fill:#808285; stroke-width:0px;"/><path d="M180.64,76.78c-.22.04-.24.25-.24.25,0,0-.02-.21-.24-.25.22-.04.24-.25.24-.25,0,0,.02.21.24.25Z" style="fill:#808285; stroke-width:0px;"/><path d="M199.23,83.84c-.22.04-.24.25-.24.25,0,0-.02-.21-.24-.25.22-.04.24-.25.24-.25,0,0,.02.21.24.25Z" style="fill:#808285; stroke-width:0px;"/><path d="M196.48,82.13c-.22.04-.24.25-.24.25,0,0-.02-.21-.24-.25.22-.04.24-.25.24-.25,0,0,.02.21.24.25Z" style="fill:#808285; stroke-width:0px;"/><path d="M196.72,63.28c-.22.04-.24.25-.24.25,0,0-.02-.21-.24-.25.22-.04.24-.25.24-.25,0,0,.02.21.24.25Z" style="fill:#808285; stroke-width:0px;"/><path d="M209.16,53.28c-.22.04-.24.25-.24.25,0,0-.02-.21-.24-.25.22-.04.24-.25.24-.25,0,0,.02.21.24.25Z" style="fill:#808285; stroke-width:0px;"/><path d="M213.9,77.02c-.22.04-.24.25-.24.25,0,0-.02-.21-.24-.25.22-.04.24-.25.24-.25,0,0,.02.21.24.25Z" style="fill:#808285; stroke-width:0px;"/><path d="M191.92,79.09c-.22.04-.24.25-.24.25,0,0-.02-.21-.24-.25.22-.04.24-.25.24-.25,0,0,.02.21.24.25Z" style="fill:#808285; stroke-width:0px;"/><path d="M183.8,87.37c-.22.04-.24.25-.24.25,0,0-.02-.21-.24-.25.22-.04.24-.25.24-.25,0,0,.02.21.24.25Z" style="fill:#808285; stroke-width:0px;"/><path d="M181.41,60.07c-.22.04-.24.25-.24.25,0,0-.02-.21-.24-.25.22-.04.24-.25.24-.25,0,0,.02.21.24.25Z" style="fill:#808285; stroke-width:0px;"/><path d="M179.2,45.25c-.22.04-.24.25-.24.25,0,0-.02-.21-.24-.25.22-.04.24-.25.24-.25,0,0,.02.21.24.25Z" style="fill:#808285; stroke-width:0px;"/><path d="M170.42,56.79c-.22.04-.24.25-.24.25,0,0-.02-.21-.24-.25.22-.04.24-.25.24-.25,0,0,.02.21.24.25Z" style="fill:#808285; stroke-width:0px;"/><path d="M185.44,51.88c-.22.04-.24.25-.24.25,0,0-.02-.21-.24-.25.22-.04.24-.25.24-.25,0,0,.02.21.24.25Z" style="fill:#808285; stroke-width:0px;"/><path d="M185.68,41.78c-.22.04-.24.25-.24.25,0,0-.02-.21-.24-.25.22-.04.24-.25.24-.25,0,0,.02.21.24.25Z" style="fill:#808285; stroke-width:0px;"/><path d="M182.05,35.48c-.22.04-.24.25-.24.25,0,0-.02-.21-.24-.25.22-.04.24-.25.24-.25,0,0,.02.21.24.25Z" style="fill:#808285; stroke-width:0px;"/><path d="M179.06,26.74c-.22.04-.24.25-."/></g></g></g></g></g></svg>